<svg width="15" height="14" viewBox="0 0 15 14" fill="none" xmlns="http://www.w3.org/2000/svg">
<path d="M12.8721 8.1375C12.8721 8.00821 12.8206 7.88421 12.7291 7.79279C12.6375 7.70136 12.5132 7.65 12.3837 7.65H10.4302C10.3007 7.65 10.1765 7.70136 10.0849 7.79279C9.99331 7.88421 9.94186 8.00821 9.94186 8.1375V12.525H8.96512V1.9625C8.96512 1.4893 8.96381 1.1825 8.93386 0.9576C8.90521 0.74635 8.85898 0.68005 8.82186 0.643C8.78474 0.60595 8.71833 0.5598 8.5067 0.5312C8.28074 0.5013 7.97405 0.5 7.5 0.5C7.02595 0.5 6.71861 0.5013 6.4933 0.5312C6.28167 0.5598 6.21526 0.60595 6.17814 0.643C6.14102 0.68005 6.09479 0.74635 6.06614 0.9576C6.03619 1.18315 6.03488 1.4893 6.03488 1.9625V12.525H5.05814V4.8875C5.05814 4.75821 5.00669 4.63421 4.9151 4.54279C4.82351 4.45136 4.69929 4.4 4.56977 4.4H2.61628C2.48675 4.4 2.36254 4.45136 2.27095 4.54279C2.17936 4.63421 2.12791 4.75821 2.12791 4.8875V12.525H0.988372C0.858848 12.525 0.734628 12.5764 0.643041 12.6678C0.551453 12.7592 0.5 12.8832 0.5 13.0125C0.5 13.1418 0.551453 13.2658 0.643041 13.3572C0.734628 13.4486 0.858848 13.5 0.988372 13.5H14.0116C14.1412 13.5 14.2654 13.4486 14.357 13.3572C14.4485 13.2658 14.5 13.1418 14.5 13.0125C14.5 12.8832 14.4485 12.7592 14.357 12.6678C14.2654 12.5764 14.1412 12.525 14.0116 12.525H12.8721V8.1375Z" fill="white"/>
</svg>
